<?xml version="1.0" encoding="UTF-8"?>
<svg id="Calque_2" data-name="Calque 2" xmlns="http://www.w3.org/2000/svg" viewBox="0 0 250.57 276.12">
  <defs>
    <style>
      .cls-1 {
        fill: #fff;
        stroke-width: 0px;
      }
    </style>
  </defs>
  <g id="Calque_1-2" data-name="Calque 1">
    <path class="cls-1" d="m249.05,228.79c.74,15.57-11,30.33-28.37,34.41-19.35,4.55-38.35-5.89-42.44-23.3-4.09-17.41,8.28-35.21,27.63-39.75,17.05-4.01,33.83,3.61,40.37,17.4l1.15-188.36-174.47,11.77-1.33,199.68c.74,15.57-11,30.33-28.37,34.41-19.35,4.55-38.35-5.89-42.44-23.3-4.09-17.41,8.28-35.21,27.63-39.75,17.05-4.01,33.83,3.61,40.37,17.4l1.33-217.55L250.57,0l-1.52,228.79Z"/>
  </g>
</svg>